<svg width="339" height="101" viewBox="0 0 339 101" fill="none" xmlns="http://www.w3.org/2000/svg">
<path d="M326.33 2.00764C329.126 2.00764 331.808 3.11758 333.785 5.09327C335.762 7.06897 336.873 9.74859 336.873 12.5426V87.7926C336.873 90.5867 335.762 93.2663 333.785 95.242C331.808 97.2177 329.126 98.3276 326.33 98.3276H12.5511C9.75498 98.3276 7.07333 97.2177 5.09615 95.242C3.11896 93.2663 2.00818 90.5867 2.00818 87.7926V12.5426C2.00818 9.74859 3.11896 7.06897 5.09615 5.09327C7.07333 3.11758 9.75498 2.00764 12.5511 2.00764H326.33ZM326.33 0.000976562H12.5511C9.22238 0.000976563 6.02994 1.32233 3.67615 3.67435C1.32235 6.02636 0 9.21639 0 12.5426V87.7926C0 91.1189 1.32235 94.3089 3.67615 96.6609C6.02994 99.013 9.22238 100.334 12.5511 100.334H326.33C329.659 100.334 332.851 99.013 335.205 96.6609C337.559 94.3089 338.881 91.1189 338.881 87.7926V12.5426C338.881 9.21639 337.559 6.02636 335.205 3.67435C332.851 1.32233 329.659 0.000976563 326.33 0.000976562Z" fill="black"/>
<path d="M171.046 54.558C168.938 54.5679 166.881 55.2015 165.133 56.3789C163.385 57.5563 162.025 59.2247 161.226 61.1735C160.426 63.1223 160.222 65.2641 160.639 67.3287C161.056 69.3933 162.076 71.2881 163.57 72.774C165.064 74.2599 166.965 75.2702 169.033 75.6775C171.102 76.0848 173.244 75.8708 175.191 75.0625C177.137 74.2541 178.8 72.8878 179.97 71.1358C181.14 69.3838 181.765 67.3247 181.765 65.2184C181.785 63.8086 181.522 62.409 180.99 61.1031C180.458 59.7972 179.668 58.6116 178.668 57.6169C177.668 56.6222 176.478 55.8388 175.168 55.3133C173.859 54.7878 172.457 54.5309 171.046 54.558V54.558ZM171.046 71.6899C169.75 71.7805 168.456 71.4793 167.333 70.8255C166.211 70.1717 165.311 69.1955 164.751 68.0238C164.19 66.8521 163.996 65.5392 164.192 64.2556C164.389 62.972 164.967 61.7772 165.852 60.8264C166.738 59.8757 167.888 59.2129 169.155 58.9244C170.422 58.6359 171.747 58.735 172.957 59.2086C174.167 59.6823 175.206 60.5088 175.94 61.5806C176.674 62.6524 177.068 63.9199 177.071 65.2184C177.111 66.0412 176.986 66.8637 176.704 67.6375C176.421 68.4113 175.986 69.1207 175.424 69.7238C174.863 70.327 174.186 70.8117 173.434 71.1493C172.682 71.487 171.87 71.6708 171.046 71.6899ZM147.676 54.558C145.567 54.5629 143.507 55.1924 141.756 56.3668C140.005 57.5412 138.641 59.2078 137.837 61.1562C137.034 63.1046 136.826 65.2472 137.241 67.3135C137.655 69.3797 138.673 71.2769 140.166 72.7653C141.659 74.2537 143.56 75.2665 145.629 75.6758C147.698 76.0851 149.842 75.8725 151.789 75.0649C153.737 74.2573 155.402 72.8909 156.573 71.1384C157.744 69.3858 158.369 67.3258 158.37 65.2184C158.39 63.8086 158.126 62.409 157.594 61.1031C157.062 59.7972 156.273 58.6116 155.273 57.6169C154.272 56.6222 153.082 55.8388 151.773 55.3133C150.463 54.7878 149.062 54.5309 147.651 54.558H147.676ZM147.676 71.6899C146.379 71.7856 145.083 71.4889 143.957 70.8385C142.832 70.188 141.928 69.2139 141.364 68.043C140.799 66.8721 140.601 65.5587 140.795 64.2736C140.988 62.9885 141.564 61.7914 142.448 60.8381C143.332 59.8848 144.482 59.2194 145.75 58.9286C147.017 58.6378 148.343 58.735 149.554 59.2077C150.766 59.6803 151.807 60.5064 152.542 61.5785C153.277 62.6506 153.672 63.9189 153.675 65.2184C153.716 66.0412 153.591 66.8637 153.308 67.6375C153.025 68.4113 152.591 69.1207 152.029 69.7238C151.468 70.327 150.791 70.8117 150.039 71.1493C149.287 71.487 148.475 71.6708 147.651 71.6899H147.676ZM119.837 57.8439V62.3589H130.682C130.512 64.4855 129.627 66.4921 128.171 68.0528C127.087 69.1571 125.782 70.0222 124.343 70.5924C122.903 71.1626 121.36 71.4254 119.812 71.3638C116.617 71.3638 113.552 70.0953 111.292 67.8374C109.033 65.5795 107.763 62.517 107.763 59.3238C107.763 56.1306 109.033 53.0682 111.292 50.8103C113.552 48.5523 116.617 47.2838 119.812 47.2838C122.869 47.234 125.821 48.3976 128.021 50.5196L131.209 47.334C129.724 45.8316 127.952 44.6423 125.999 43.8365C124.046 43.0308 121.951 42.6251 119.837 42.6434C117.606 42.5566 115.38 42.9209 113.292 43.7144C111.205 44.5079 109.299 45.7143 107.69 47.2613C106.08 48.8083 104.8 50.664 103.925 52.7174C103.05 54.7707 102.6 56.9793 102.6 59.2109C102.6 61.4426 103.05 63.6512 103.925 65.7045C104.8 67.7579 106.08 69.6136 107.69 71.1606C109.299 72.7076 111.205 73.914 113.292 74.7075C115.38 75.501 117.606 75.8653 119.837 75.7785C121.986 75.8755 124.131 75.5116 126.127 74.7111C128.123 73.9107 129.924 72.6924 131.41 71.1381C134.04 68.2508 135.444 64.4553 135.326 60.5529C135.334 59.6022 135.25 58.653 135.075 57.7185L119.837 57.8439ZM233.576 61.3556C232.921 59.431 231.697 57.7506 230.065 56.5367C228.434 55.3228 226.472 54.6328 224.439 54.558C223.066 54.5553 221.707 54.8341 220.446 55.377C219.185 55.92 218.048 56.7157 217.107 57.7148C216.166 58.7139 215.44 59.8953 214.974 61.186C214.508 62.4766 214.312 63.849 214.398 65.2184C214.367 66.6203 214.62 68.014 215.141 69.3163C215.661 70.6185 216.439 71.8025 217.428 72.7975C218.417 73.7926 219.596 74.5783 220.895 75.1077C222.195 75.6371 223.588 75.8994 224.991 75.8788C226.747 75.8883 228.478 75.4625 230.029 74.6395C231.579 73.8165 232.902 72.6221 233.877 71.1632L230.237 68.6548C229.694 69.5598 228.925 70.3083 228.005 70.8271C227.086 71.346 226.047 71.6173 224.991 71.6147C223.904 71.6561 222.829 71.3696 221.907 70.7925C220.985 70.2155 220.257 69.3745 219.82 68.3789L234.103 62.4843L233.576 61.3556ZM219.017 64.9174C218.966 64.1416 219.07 63.3634 219.324 62.6284C219.578 61.8934 219.976 61.2165 220.495 60.6372C221.014 60.0579 221.644 59.5878 222.347 59.2546C223.05 58.9215 223.812 58.7318 224.589 58.6967C225.399 58.6434 226.207 58.829 226.912 59.2303C227.617 59.6316 228.188 60.2311 228.556 60.9542L219.017 64.9174ZM207.419 75.2517H212.114V43.8976H207.419V75.2517ZM199.738 56.9409H199.562C198.855 56.1505 197.988 55.5185 197.019 55.0862C196.05 54.6539 195.001 54.4312 193.939 54.4326C191.196 54.5655 188.609 55.748 186.715 57.735C184.821 59.722 183.764 62.3612 183.764 65.1055C183.764 67.8499 184.821 70.4891 186.715 72.4761C188.609 74.4631 191.196 75.6456 193.939 75.7785C195.003 75.7964 196.058 75.581 197.029 75.1477C198.001 74.7143 198.865 74.0734 199.562 73.2702H199.713V74.8002C199.713 78.8888 197.529 81.0711 194.015 81.0711C192.844 81.0437 191.708 80.6689 190.752 79.9944C189.795 79.3199 189.061 78.3762 188.643 77.2835L184.551 78.9892C185.321 80.8613 186.634 82.4608 188.32 83.5825C190.006 84.7043 191.989 85.2972 194.015 85.2851C199.512 85.2851 204.056 82.0493 204.056 74.1732V55.1851H199.738V56.9409ZM194.366 71.6899C192.747 71.5473 191.24 70.8038 190.142 69.6059C189.044 68.408 188.435 66.8427 188.435 65.2184C188.435 63.5941 189.044 62.0288 190.142 60.8309C191.24 59.633 192.747 58.8895 194.366 58.7469C195.169 58.7881 195.955 58.9894 196.679 59.339C197.403 59.6885 198.049 60.1793 198.58 60.7824C199.112 61.3855 199.516 62.0887 199.771 62.8505C200.026 63.6124 200.126 64.4175 200.064 65.2184C200.133 66.0228 200.037 66.8327 199.784 67.5992C199.53 68.3657 199.123 69.0727 198.588 69.6777C198.053 70.2826 197.401 70.7729 196.671 71.1187C195.941 71.4646 195.148 71.6589 194.341 71.6899H194.366ZM255.566 43.8976H244.345V75.2517H249.039V63.3622H255.591C256.929 63.4583 258.272 63.2779 259.537 62.8323C260.802 62.3867 261.961 61.6855 262.943 60.7724C263.925 59.8592 264.708 58.7538 265.243 57.5249C265.779 56.2961 266.055 54.9702 266.055 53.6299C266.055 52.2896 265.779 50.9637 265.243 49.7349C264.708 48.506 263.925 47.4006 262.943 46.4874C261.961 45.5743 260.802 44.8731 259.537 44.4275C258.272 43.9819 256.929 43.8015 255.591 43.8976H255.566ZM255.566 58.9476H249.014V48.2621H255.666C257.094 48.2621 258.464 48.8289 259.473 49.8379C260.483 50.847 261.05 52.2155 261.05 53.6424C261.05 55.0694 260.483 56.4379 259.473 57.4469C258.464 58.456 257.094 59.0228 255.666 59.0228L255.566 58.9476ZM284.509 54.4326C282.8 54.3305 281.098 54.7296 279.613 55.5807C278.128 56.4318 276.924 57.698 276.149 59.2235L280.316 60.9542C280.727 60.1976 281.349 59.5766 282.107 59.1669C282.865 58.7572 283.725 58.5764 284.584 58.6466C285.18 58.577 285.784 58.6268 286.36 58.7929C286.936 58.959 287.474 59.2381 287.941 59.6141C288.409 59.99 288.796 60.4551 289.082 60.9824C289.367 61.5096 289.545 62.0884 289.604 62.685V63.0111C288.097 62.2134 286.415 61.7999 284.709 61.8071C280.216 61.8071 275.673 64.3154 275.673 68.8555C275.717 69.8235 275.955 70.7729 276.373 71.6474C276.791 72.5219 277.38 73.3038 278.105 73.9469C278.831 74.59 279.678 75.0812 280.597 75.3915C281.515 75.7018 282.487 75.8248 283.454 75.7534C284.636 75.8382 285.82 75.6035 286.88 75.0739C287.94 74.5443 288.837 73.7393 289.479 72.7434H289.629V75.2517H294.148V63.1867C294.148 57.6934 289.981 54.5078 284.634 54.5078L284.509 54.4326ZM283.931 71.6147C282.4 71.6147 280.266 70.8371 280.266 68.9558C280.266 66.4475 282.927 65.6197 285.287 65.6197C286.778 65.583 288.252 65.9468 289.554 66.6732C289.397 68.0313 288.754 69.2868 287.744 70.2087C286.734 71.1306 285.424 71.6566 284.057 71.6899L283.931 71.6147ZM310.615 55.1851L305.243 68.7802H305.092L299.52 55.1851H294.499L302.858 74.1982L298.089 84.7583H302.984L315.836 55.1851H310.615ZM268.418 75.2517H273.112V43.8976H268.418V75.2517Z" fill="black"/>
<path d="M105.706 35.7949H103.849V30.7783H105.43C106.151 30.0147 106.696 29.1023 107.025 28.1055C107.355 27.1086 107.462 26.0516 107.338 25.0091V17.5594H117.379V30.7532H119.061V35.7699H117.203V32.6094H105.706V35.7949ZM109.195 25.0844C109.313 27.1077 108.814 29.119 107.765 30.8535H115.295V19.4155H109.195V25.0844ZM134.072 30.6529C132.604 32.1111 130.619 32.9296 128.549 32.9296C126.48 32.9296 124.494 32.1111 123.027 30.6529C121.6 29.1441 120.806 27.1473 120.806 25.0718C120.806 22.9963 121.6 20.9995 123.027 19.4908C123.75 18.7627 124.611 18.1849 125.558 17.7905C126.506 17.3962 127.523 17.1932 128.549 17.1932C129.576 17.1932 130.593 17.3962 131.54 17.7905C132.488 18.1849 133.349 18.7627 134.072 19.4908C135.504 20.9966 136.302 22.9945 136.302 25.0718C136.302 27.1491 135.504 29.147 134.072 30.6529ZM124.458 29.3987C125.544 30.4801 127.016 31.0872 128.549 31.0872C130.083 31.0872 131.554 30.4801 132.641 29.3987C133.713 28.2173 134.308 26.6794 134.308 25.0844C134.308 23.4893 133.713 21.9514 132.641 20.77C131.554 19.6886 130.083 19.0815 128.549 19.0815C127.016 19.0815 125.544 19.6886 124.458 20.77C123.385 21.9514 122.791 23.4893 122.791 25.0844C122.791 26.6794 123.385 28.2173 124.458 29.3987ZM146.046 32.9354C145.009 32.956 143.98 32.7668 143.018 32.3792C142.057 31.9916 141.185 31.4137 140.453 30.6802C139.721 29.9466 139.145 29.0727 138.761 28.111C138.376 27.1493 138.19 26.1198 138.214 25.0844C138.19 24.0489 138.376 23.0194 138.761 22.0577C139.145 21.096 139.721 20.2221 140.453 19.4885C141.185 18.755 142.057 18.1771 143.018 17.7895C143.98 17.4019 145.009 17.2127 146.046 17.2333C147.096 17.2073 148.139 17.4195 149.095 17.8539C150.052 18.2884 150.897 18.9338 151.568 19.7416L150.213 21.0459C149.717 20.417 149.078 19.9157 148.348 19.5841C147.619 19.2524 146.821 19.1 146.021 19.1396C145.25 19.1196 144.483 19.256 143.767 19.5405C143.051 19.8251 142.4 20.2519 141.854 20.7951C140.765 21.9835 140.162 23.5361 140.162 25.1471C140.162 26.758 140.765 28.3106 141.854 29.499C142.4 30.0422 143.051 30.469 143.767 30.7536C144.483 31.0381 145.25 31.1745 146.021 31.1545C146.904 31.1466 147.775 30.9422 148.569 30.556C149.364 30.1699 150.063 29.6117 150.614 28.9221L151.97 30.2766C151.287 31.1047 150.43 31.7726 149.46 32.2331C148.388 32.718 147.222 32.958 146.046 32.9354ZM159.852 32.6094H157.919V19.4155H153.702V17.5594H164.044V19.4155H159.852V32.6094ZM177.348 17.5594L171.65 30.2515C171.422 31.0023 170.966 31.6638 170.346 32.1446C169.725 32.6254 168.97 32.9017 168.186 32.9354C167.667 32.9288 167.155 32.818 166.68 32.6094L167.182 30.8284C167.487 31.0059 167.833 31.101 168.186 31.1044C168.555 31.1321 168.923 31.0445 169.24 30.8535C169.543 30.5977 169.776 30.2699 169.918 29.9004L170.47 28.6964L165.45 17.5844H167.734L171.449 26.2131L175.064 17.5594H177.348ZM179.532 32.6094V17.5594H190.426V32.6094H188.494V19.4155H181.465V32.6094H179.532ZM193.866 32.6094V17.5594H195.798V24.0058H203.329V17.5594H205.262V32.6094H203.329V25.8118H195.798V32.6094H193.866ZM221.051 30.6529C219.584 32.1111 217.598 32.9296 215.529 32.9296C213.459 32.9296 211.474 32.1111 210.006 30.6529C208.58 29.1441 207.785 27.1473 207.785 25.0718C207.785 22.9963 208.58 20.9995 210.006 19.4908C210.73 18.7627 211.59 18.1849 212.538 17.7905C213.486 17.3962 214.502 17.1932 215.529 17.1932C216.555 17.1932 217.572 17.3962 218.52 17.7905C219.468 18.1849 220.328 18.7627 221.051 19.4908C222.483 20.9966 223.282 22.9945 223.282 25.0718C223.282 27.1491 222.483 29.147 221.051 30.6529ZM211.437 29.3987C212.524 30.4801 213.995 31.0872 215.529 31.0872C217.062 31.0872 218.534 30.4801 219.62 29.3987C220.693 28.2173 221.287 26.6794 221.287 25.0844C221.287 23.4893 220.693 21.9514 219.62 20.77C218.534 19.6886 217.062 19.0815 215.529 19.0815C213.995 19.0815 212.524 19.6886 211.437 20.77C210.365 21.9514 209.771 23.4893 209.771 25.0844C209.771 26.6794 210.365 28.2173 211.437 29.3987ZM231.168 32.6094V17.5594H236.615C237.746 17.538 238.842 17.951 239.677 18.7132C240.097 19.0769 240.431 19.5283 240.657 20.0355C240.882 20.5426 240.993 21.0931 240.982 21.6479C240.994 22.3166 240.802 22.9729 240.43 23.5292C240.062 24.0696 239.548 24.4955 238.949 24.7583C239.677 24.9991 240.316 25.4537 240.782 26.0626C241.264 26.6772 241.521 27.4386 241.51 28.2198C241.522 28.798 241.408 29.372 241.173 29.9009C240.939 30.4298 240.591 30.9006 240.154 31.2799C239.28 32.0856 238.13 32.5255 236.941 32.509L231.168 32.6094ZM233.1 24.0058H236.615C236.943 24.0195 237.27 23.9615 237.574 23.8358C237.877 23.7102 238.149 23.52 238.372 23.2784C238.594 23.077 238.773 22.8329 238.899 22.5608C239.025 22.2886 239.095 21.994 239.104 21.6943C239.114 21.3947 239.062 21.0962 238.954 20.8168C238.845 20.5373 238.682 20.2825 238.472 20.0677C238.263 19.8306 238.003 19.6425 237.712 19.5168C237.422 19.3911 237.107 19.3308 236.79 19.3403H233.201L233.1 24.0058ZM233.1 30.7532H236.991C237.331 30.7646 237.67 30.7008 237.982 30.5664C238.294 30.4319 238.573 30.2302 238.799 29.9756C239.241 29.5169 239.493 28.9071 239.501 28.2699C239.501 27.6047 239.237 26.9667 238.766 26.4963C238.295 26.0259 237.657 25.7616 236.991 25.7616H233.176L233.1 30.7532Z" fill="black"/>
<path fill-rule="evenodd" clip-rule="evenodd" d="M128.549 17.444C127.556 17.444 126.572 17.6405 125.655 18.0221C124.739 18.4033 123.907 18.9617 123.207 19.6653C121.826 21.1272 121.057 23.0614 121.057 25.0718C121.057 27.0819 121.826 29.0159 123.207 30.4777C124.627 31.8875 126.547 32.6788 128.549 32.6788C130.551 32.6788 132.472 31.8874 133.892 30.4775C135.278 29.0186 136.051 27.0836 136.051 25.0718C136.051 23.0597 135.278 21.1245 133.892 19.6655C133.192 18.9619 132.36 18.4034 131.444 18.0221C130.527 17.6405 129.543 17.444 128.549 17.444ZM125.462 17.559C126.44 17.1519 127.49 16.9424 128.549 16.9424C129.609 16.9424 130.658 17.1519 131.637 17.559C132.615 17.966 133.503 18.5625 134.25 19.3141L134.254 19.3179C135.73 20.8704 136.553 22.9302 136.553 25.0718C136.553 27.2134 135.73 29.2732 134.254 30.8256L134.249 30.8308C132.734 32.3357 130.685 33.1804 128.549 33.1804C126.413 33.1804 124.364 32.3357 122.85 30.8307L122.844 30.8252C121.374 29.2699 120.555 27.2114 120.555 25.0718C120.555 22.9323 121.374 20.8738 122.844 19.3185L122.849 19.314C123.595 18.5625 124.483 17.966 125.462 17.559ZM215.529 17.444C214.535 17.444 213.551 17.6405 212.634 18.0221C211.718 18.4033 210.886 18.9617 210.187 19.6652C208.806 21.127 208.036 23.0614 208.036 25.0718C208.036 27.0819 208.805 29.016 210.186 30.4778C211.606 31.8875 213.527 32.6788 215.529 32.6788C217.531 32.6788 219.452 31.8874 220.872 30.4774C222.258 29.0185 223.031 27.0835 223.031 25.0718C223.031 23.0598 222.258 21.1246 220.871 19.6656C220.172 18.9619 219.34 18.4034 218.423 18.0221C217.506 17.6405 216.522 17.444 215.529 17.444ZM212.441 17.559C213.42 17.1519 214.469 16.9424 215.529 16.9424C216.589 16.9424 217.638 17.1519 218.616 17.559C219.595 17.966 220.483 18.5625 221.229 19.3141L221.233 19.3179C222.71 20.8704 223.533 22.9302 223.533 25.0718C223.533 27.2134 222.71 29.2732 221.233 30.8256L221.228 30.8308C219.714 32.3357 217.665 33.1804 215.529 33.1804C213.393 33.1804 211.344 32.3357 209.829 30.8307L209.824 30.8252C208.353 29.2699 207.534 27.2114 207.534 25.0718C207.534 22.9323 208.353 20.8738 209.824 19.3185L209.828 19.314C210.575 18.5625 211.463 17.966 212.441 17.559ZM148.991 18.0823C148.069 17.6635 147.064 17.459 146.052 17.484L146.041 17.4843C145.038 17.4644 144.042 17.6472 143.112 18.0221C142.183 18.397 141.338 18.9561 140.631 19.6656C139.923 20.3752 139.366 21.2205 138.994 22.1508C138.622 23.0811 138.442 24.077 138.465 25.0786L138.465 25.0901C138.442 26.0917 138.622 27.0876 138.994 28.0179C139.366 28.9482 139.923 29.7935 140.631 30.5031C141.338 31.2126 142.183 31.7717 143.112 32.1466C144.042 32.5215 145.038 32.7046 146.041 32.6847L146.046 32.9354L146.05 32.6846C147.188 32.7065 148.317 32.4745 149.354 32.0056C150.221 31.5935 150.995 31.0096 151.628 30.2903L150.631 29.2932C150.087 29.9136 149.423 30.42 148.679 30.7816C147.852 31.1838 146.945 31.3968 146.025 31.4053C145.221 31.4259 144.422 31.2835 143.674 30.9867C142.927 30.6896 142.247 30.244 141.677 29.6768L141.668 29.6685C140.537 28.4339 139.911 26.8207 139.911 25.1471C139.911 23.4734 140.538 21.8605 141.668 20.6258L141.676 20.6171C142.247 20.0499 142.927 19.6045 143.674 19.3075C144.419 19.0115 145.216 18.8691 146.018 18.8886C146.855 18.8487 147.689 19.0088 148.452 19.3558C149.134 19.6658 149.741 20.1169 150.233 20.6781L151.223 19.7253C150.602 19.0288 149.842 18.4689 148.991 18.0823ZM146.046 33.1863C144.977 33.2069 143.916 33.0115 142.924 32.6118C141.932 32.2116 141.031 31.6147 140.275 30.8572C139.519 30.0997 138.925 29.1973 138.528 28.2042C138.131 27.2128 137.939 26.1517 137.963 25.0844C137.939 24.017 138.131 22.9559 138.528 21.9646C138.925 20.9714 139.519 20.069 140.275 19.3115C141.031 18.554 141.932 17.9571 142.924 17.5569C143.915 17.1573 144.977 16.9619 146.045 16.9824C147.131 16.9563 148.21 17.1762 149.199 17.6256C150.19 18.0757 151.066 18.7444 151.761 19.5814L151.91 19.7607L150.187 21.4188L150.015 21.2011C149.544 20.6036 148.937 20.1274 148.244 19.8124C147.551 19.4973 146.793 19.3525 146.033 19.3901L146.014 19.3911C145.277 19.3719 144.545 19.5016 143.86 19.7736C143.177 20.0449 142.556 20.4515 142.035 20.9688C140.991 22.1104 140.413 23.6008 140.413 25.1471C140.413 26.6934 140.991 28.1837 142.035 29.3253C142.556 29.8427 143.177 30.2492 143.86 30.5205C144.545 30.7925 145.277 30.9229 146.014 30.9038L146.018 30.9037C146.865 30.8961 147.699 30.7003 148.46 30.3305C149.221 29.9606 149.89 29.426 150.418 28.7655L150.593 28.5465L152.309 30.2604L152.163 30.4362C151.457 31.2926 150.571 31.9834 149.567 32.4597L149.563 32.4616C148.459 32.9613 147.257 33.2088 146.046 33.1863ZM239.508 18.8984C238.72 18.1795 237.686 17.79 236.619 17.8101L236.615 17.8102H231.419V32.3541L236.937 32.2582L236.945 32.2582C238.069 32.2738 239.157 31.8577 239.984 31.0956L239.989 31.0905C240.399 30.7353 240.724 30.2946 240.944 29.7994C241.163 29.3042 241.271 28.7667 241.259 28.2253L241.259 28.216C241.269 27.4923 241.031 26.7868 240.584 26.2175L240.582 26.2149C240.147 25.646 239.551 25.2214 238.87 24.9964L238.25 24.7911L238.848 24.5286C239.404 24.2849 239.88 23.8901 240.222 23.3891C240.565 22.8755 240.742 22.2696 240.732 21.6523V21.643C240.742 21.1249 240.638 20.6109 240.427 20.1373C240.217 19.6638 239.904 19.2423 239.513 18.9026L239.508 18.8984ZM239.844 18.5259C238.962 17.7223 237.806 17.2866 236.612 17.3085H230.916V32.8646L236.938 32.7598L236.942 32.7599C238.192 32.7762 239.402 32.3135 240.322 31.4668C240.785 31.0638 241.154 30.5639 241.403 30.0024C241.651 29.4413 241.774 28.8324 241.761 28.2189L241.761 28.2235L241.51 28.2198L241.761 28.2142L241.761 28.2189C241.772 27.3825 241.497 26.5673 240.98 25.9089C240.596 25.4074 240.102 25.0043 239.539 24.7287C239.973 24.4561 240.347 24.0965 240.638 23.6704L240.639 23.6684C241.038 23.0709 241.245 22.3662 241.234 21.6481L241.233 21.6528L240.982 21.6479L241.233 21.6435L241.234 21.6481C241.244 21.0581 241.126 20.4729 240.886 19.9336C240.646 19.3939 240.29 18.9134 239.844 18.5259ZM107.087 17.3085H117.63V30.5024H119.312V36.0207H116.952V32.8602H105.957V36.0458H103.598V30.5274H105.321C105.98 29.8069 106.48 28.9548 106.787 28.0268C107.105 27.0648 107.208 26.0448 107.089 25.0387L107.087 25.0239V17.3085ZM107.589 17.8102V24.9944C107.714 26.0686 107.603 27.1572 107.264 28.1842C106.923 29.2159 106.359 30.1602 105.613 30.9504L105.538 31.0291H104.1V35.5441H105.455V32.3585H117.454V35.519H118.81V31.004H117.128V17.8102H107.589ZM153.451 17.3085H164.295V19.6664H160.103V32.8602H157.668V19.6664H153.451V17.3085ZM153.953 17.8102V19.1647H158.17V32.3585H159.601V19.1647H163.793V17.8102H153.953ZM174.897 17.3085H177.736L171.885 30.3399C171.641 31.134 171.157 31.8335 170.499 32.3428C169.838 32.8554 169.033 33.1501 168.197 33.186L168.183 33.1866C167.63 33.1796 167.085 33.0611 166.579 32.839L166.379 32.7513L167.028 30.4487L167.308 30.6117C167.575 30.7673 167.879 30.8506 168.188 30.8535L168.205 30.8537C168.515 30.877 168.825 30.8059 169.093 30.6489C169.356 30.4222 169.559 30.1342 169.684 29.8103L169.689 29.7956L170.194 28.6956L165.061 17.3336H167.899L171.446 25.5703L174.897 17.3085ZM175.231 17.8102L171.453 26.8559L167.569 17.8353H165.838L170.746 28.6971L170.149 29.9979C169.992 30.4037 169.735 30.7637 169.402 31.045L169.387 31.0579L169.37 31.0683C169.011 31.2847 168.593 31.3848 168.175 31.3551C167.888 31.3514 167.606 31.2937 167.342 31.186L166.982 32.4611C167.366 32.6028 167.772 32.6785 168.182 32.6845C168.912 32.6517 169.614 32.3939 170.192 31.9464C170.771 31.4974 171.197 30.8797 171.41 30.1787L171.414 30.1634L176.96 17.8102H175.231ZM179.281 17.3085H190.678V32.8602H188.243V19.6664H181.716V32.8602H179.281V17.3085ZM179.783 17.8102V32.3585H181.214V19.1647H188.745V32.3585H190.175V17.8102H179.783ZM193.614 17.3085H196.049V23.7549H203.078V17.3085H205.513V32.8602H203.078V26.0626H196.049V32.8602H193.614V17.3085ZM194.117 17.8102V32.3585H195.547V25.5609H203.58V32.3585H205.011V17.8102H203.58V24.2566H195.547V17.8102H194.117ZM124.281 20.5923C125.414 19.4641 126.949 18.8306 128.549 18.8306C130.149 18.8306 131.684 19.4641 132.818 20.5923L132.827 20.6013C133.942 21.8288 134.559 23.427 134.559 25.0844C134.559 26.7417 133.941 28.3397 132.827 29.5672L132.818 29.5767C131.685 30.7049 130.149 31.3381 128.549 31.3381C126.949 31.3381 125.414 30.7046 124.281 29.5764L124.458 29.3987L124.272 29.5672C123.157 28.3397 122.54 26.7417 122.54 25.0844C122.54 23.427 123.157 21.829 124.272 20.6015L124.281 20.5923ZM124.639 29.2254C125.679 30.2572 127.084 30.8364 128.549 30.8364C130.015 30.8364 131.42 30.2572 132.459 29.2254C133.487 28.0908 134.057 26.6149 134.057 25.0844C134.057 23.5538 133.487 22.0779 132.459 20.9433C131.42 19.9115 130.015 19.3323 128.549 19.3323C127.084 19.3323 125.679 19.9115 124.639 20.9433C123.611 22.0779 123.042 23.5538 123.042 25.0844C123.042 26.6149 123.611 28.0908 124.639 29.2254ZM211.26 20.5923C212.394 19.4641 213.929 18.8306 215.529 18.8306C217.129 18.8306 218.664 19.4641 219.798 20.5923L219.807 20.6013C220.921 21.8288 221.538 23.427 221.538 25.0844C221.538 26.7417 220.921 28.3397 219.806 29.5672L219.798 29.5767C218.664 30.7049 217.129 31.3381 215.529 31.3381C213.929 31.3381 212.394 30.7046 211.26 29.5764L211.437 29.3987L211.251 29.5672C210.137 28.3397 209.52 26.7417 209.52 25.0844C209.52 23.427 210.137 21.829 211.251 20.6015L211.26 20.5923ZM211.619 29.2255C212.658 30.2572 214.064 30.8364 215.529 30.8364C216.994 30.8364 218.4 30.2572 219.439 29.2255C220.467 28.0909 221.036 26.615 221.036 25.0844C221.036 23.5537 220.467 22.0779 219.439 20.9432C218.4 19.9115 216.994 19.3323 215.529 19.3323C214.064 19.3323 212.658 19.9115 211.619 20.9432C210.591 22.0779 210.022 23.5537 210.022 25.0844C210.022 26.615 210.591 28.0909 211.619 29.2255ZM236.787 19.0894C237.139 19.0795 237.489 19.1468 237.812 19.2866C238.135 19.4262 238.423 19.6346 238.656 19.8972C238.887 20.1352 239.068 20.417 239.188 20.726C239.309 21.0369 239.365 21.3688 239.355 21.7022C239.345 22.0355 239.267 22.3632 239.127 22.666C238.989 22.9653 238.792 23.234 238.549 23.4565C238.303 23.721 238.003 23.9294 237.67 24.0676C237.334 24.2065 236.972 24.271 236.61 24.2566H232.844L232.955 19.0894H236.787ZM237.613 19.747C237.356 19.6359 237.078 19.5826 236.798 19.591L236.79 19.5911H233.446L233.357 23.7549H236.625C236.917 23.7671 237.208 23.7158 237.478 23.6041C237.747 23.4924 237.989 23.3233 238.187 23.1086L238.195 23.1002L238.203 23.0925C238.401 22.9138 238.56 22.6972 238.671 22.4556C238.783 22.214 238.845 21.9525 238.853 21.6865C238.862 21.4205 238.816 21.1556 238.72 20.9075C238.623 20.6595 238.478 20.4333 238.292 20.2426L238.284 20.234C238.099 20.0245 237.87 19.8581 237.613 19.747ZM108.944 19.1647H115.546V31.1044H107.32L107.55 30.7238C108.573 29.0326 109.059 27.0716 108.945 25.0988L108.944 25.0844L108.944 19.1647ZM109.446 19.6664V25.0771C109.557 27.0022 109.123 28.9164 108.199 30.6027H115.044V19.6664H109.446ZM232.928 25.5108H236.991C237.724 25.5108 238.426 25.8015 238.944 26.3189C239.462 26.8364 239.753 27.5382 239.753 28.2699L239.752 28.2735C239.743 28.9726 239.468 29.6418 238.983 30.146C238.734 30.4263 238.426 30.6485 238.081 30.7968C237.736 30.9452 237.363 31.016 236.987 31.004H232.846L232.928 25.5108ZM233.423 26.0124L233.355 30.5024H237C237.303 30.5125 237.604 30.4558 237.883 30.336C238.161 30.2162 238.41 30.0364 238.611 29.8094L238.618 29.8013C239.016 29.3889 239.242 28.8409 239.25 28.2681C239.25 27.67 239.012 27.0966 238.589 26.6736C238.165 26.2503 237.59 26.0124 236.991 26.0124H233.423Z" fill="black"/>
<path d="M26.4708 82.0199L57.2225 50.1484L26.4965 18.334C25.6758 18.8293 25.168 19.9761 25.168 21.4773V78.907C25.179 80.4082 25.6685 81.4712 26.4708 82.0199V82.0199Z" fill="black"/>
<path d="M58.3241 49.2685L67.4841 39.7737L30.1816 18.5743C29.5534 18.196 28.8399 17.9962 28.1133 17.9951L58.3204 49.2646L58.3241 49.2685Z" fill="black"/>
<path d="M58.3243 51.0322L28.0215 82.4389C28.7821 82.4521 29.5312 82.2463 30.1854 81.8446L67.5616 60.588L58.3243 51.0322Z" fill="black"/>
<path d="M80.9974 47.4662L68.5841 40.3984L59.1738 50.1523L68.654 59.9671L80.9937 52.9185C83.6177 51.4211 83.6176 48.9559 80.9974 47.4662Z" fill="black"/>
</svg>
